<mxfile host="65bd71144e">
    <diagram id="hsa0nDy6aEfMzSCS90vS" name="Page-1">
        <mxGraphModel dx="1089" dy="973" grid="1" gridSize="10" guides="1" tooltips="1" connect="1" arrows="1" fold="1" page="1" pageScale="1" pageWidth="850" pageHeight="1100" math="1" shadow="0">
            <root>
                <mxCell id="0"/>
                <mxCell id="1" parent="0"/>
                <mxCell id="2" value="" style="rounded=1;whiteSpace=wrap;html=1;arcSize=6;" parent="1" vertex="1">
                    <mxGeometry x="30" y="500" width="150" height="297" as="geometry"/>
                </mxCell>
                <mxCell id="3" value="" style="rounded=0;whiteSpace=wrap;html=1;" parent="1" vertex="1">
                    <mxGeometry x="130" y="517" width="30" height="30" as="geometry"/>
                </mxCell>
                <mxCell id="4" value="" style="rounded=0;whiteSpace=wrap;html=1;" parent="1" vertex="1">
                    <mxGeometry x="130" y="562" width="30" height="30" as="geometry"/>
                </mxCell>
                <mxCell id="5" value="" style="rounded=0;whiteSpace=wrap;html=1;" parent="1" vertex="1">
                    <mxGeometry x="130" y="607" width="30" height="30" as="geometry"/>
                </mxCell>
                <mxCell id="6" value="table" style="text;html=1;align=center;verticalAlign=middle;whiteSpace=wrap;rounded=0;" parent="1" vertex="1">
                    <mxGeometry x="30" y="517" width="100" height="30" as="geometry"/>
                </mxCell>
                <mxCell id="7" value="hd" style="text;html=1;align=center;verticalAlign=middle;whiteSpace=wrap;rounded=0;" parent="1" vertex="1">
                    <mxGeometry x="30" y="562" width="100" height="30" as="geometry"/>
                </mxCell>
                <mxCell id="9" value="inter" style="text;html=1;align=center;verticalAlign=middle;whiteSpace=wrap;rounded=0;" parent="1" vertex="1">
                    <mxGeometry x="30" y="607" width="100" height="30" as="geometry"/>
                </mxCell>
                <mxCell id="10" value="" style="rounded=0;whiteSpace=wrap;html=1;" parent="1" vertex="1">
                    <mxGeometry x="130" y="653" width="30" height="30" as="geometry"/>
                </mxCell>
                <mxCell id="11" value="inputs name" style="text;html=1;align=center;verticalAlign=middle;whiteSpace=wrap;rounded=0;" parent="1" vertex="1">
                    <mxGeometry x="30" y="653" width="100" height="30" as="geometry"/>
                </mxCell>
                <mxCell id="13" value="" style="shape=table;startSize=0;container=1;collapsible=0;childLayout=tableLayout;fontSize=16;" parent="1" vertex="1">
                    <mxGeometry x="240" y="652" width="240" height="30" as="geometry"/>
                </mxCell>
                <mxCell id="14" value="" style="shape=tableRow;horizontal=0;startSize=0;swimlaneHead=0;swimlaneBody=0;strokeColor=inherit;top=0;left=0;bottom=0;right=0;collapsible=0;dropTarget=0;fillColor=none;points=[[0,0.5],[1,0.5]];portConstraint=eastwest;fontSize=16;" parent="13" vertex="1">
                    <mxGeometry width="240" height="30" as="geometry"/>
                </mxCell>
                <mxCell id="15" value="" style="shape=partialRectangle;html=1;whiteSpace=wrap;connectable=0;strokeColor=inherit;overflow=hidden;fillColor=none;top=0;left=0;bottom=0;right=0;pointerEvents=1;fontSize=16;" parent="14" vertex="1">
                    <mxGeometry width="30" height="30" as="geometry">
                        <mxRectangle width="30" height="30" as="alternateBounds"/>
                    </mxGeometry>
                </mxCell>
                <mxCell id="16" value="" style="shape=partialRectangle;html=1;whiteSpace=wrap;connectable=0;strokeColor=inherit;overflow=hidden;fillColor=none;top=0;left=0;bottom=0;right=0;pointerEvents=1;fontSize=16;" parent="14" vertex="1">
                    <mxGeometry x="30" width="30" height="30" as="geometry">
                        <mxRectangle width="30" height="30" as="alternateBounds"/>
                    </mxGeometry>
                </mxCell>
                <mxCell id="17" value="" style="shape=partialRectangle;html=1;whiteSpace=wrap;connectable=0;strokeColor=inherit;overflow=hidden;fillColor=none;top=0;left=0;bottom=0;right=0;pointerEvents=1;fontSize=16;" parent="14" vertex="1">
                    <mxGeometry x="60" width="30" height="30" as="geometry">
                        <mxRectangle width="30" height="30" as="alternateBounds"/>
                    </mxGeometry>
                </mxCell>
                <mxCell id="18" style="shape=partialRectangle;html=1;whiteSpace=wrap;connectable=0;strokeColor=inherit;overflow=hidden;fillColor=none;top=0;left=0;bottom=0;right=0;pointerEvents=1;fontSize=16;" parent="14" vertex="1">
                    <mxGeometry x="90" width="30" height="30" as="geometry">
                        <mxRectangle width="30" height="30" as="alternateBounds"/>
                    </mxGeometry>
                </mxCell>
                <mxCell id="19" style="shape=partialRectangle;html=1;whiteSpace=wrap;connectable=0;strokeColor=inherit;overflow=hidden;fillColor=none;top=0;left=0;bottom=0;right=0;pointerEvents=1;fontSize=16;" parent="14" vertex="1">
                    <mxGeometry x="120" width="30" height="30" as="geometry">
                        <mxRectangle width="30" height="30" as="alternateBounds"/>
                    </mxGeometry>
                </mxCell>
                <mxCell id="20" style="shape=partialRectangle;html=1;whiteSpace=wrap;connectable=0;strokeColor=inherit;overflow=hidden;fillColor=none;top=0;left=0;bottom=0;right=0;pointerEvents=1;fontSize=16;" parent="14" vertex="1">
                    <mxGeometry x="150" width="30" height="30" as="geometry">
                        <mxRectangle width="30" height="30" as="alternateBounds"/>
                    </mxGeometry>
                </mxCell>
                <mxCell id="21" style="shape=partialRectangle;html=1;whiteSpace=wrap;connectable=0;strokeColor=inherit;overflow=hidden;fillColor=none;top=0;left=0;bottom=0;right=0;pointerEvents=1;fontSize=16;" parent="14" vertex="1">
                    <mxGeometry x="180" width="30" height="30" as="geometry">
                        <mxRectangle width="30" height="30" as="alternateBounds"/>
                    </mxGeometry>
                </mxCell>
                <mxCell id="22" style="shape=partialRectangle;html=1;whiteSpace=wrap;connectable=0;strokeColor=inherit;overflow=hidden;fillColor=none;top=0;left=0;bottom=0;right=0;pointerEvents=1;fontSize=16;" parent="14" vertex="1">
                    <mxGeometry x="210" width="30" height="30" as="geometry">
                        <mxRectangle width="30" height="30" as="alternateBounds"/>
                    </mxGeometry>
                </mxCell>
                <mxCell id="23" value="" style="endArrow=block;startArrow=block;endFill=1;startFill=1;html=1;rounded=0;labelPosition=center;verticalLabelPosition=top;align=center;verticalAlign=top;spacingTop=5;" parent="1" edge="1">
                    <mxGeometry width="160" relative="1" as="geometry">
                        <mxPoint x="240" y="645" as="sourcePoint"/>
                        <mxPoint x="330" y="645" as="targetPoint"/>
                    </mxGeometry>
                </mxCell>
                <mxCell id="24" value="nb files" style="edgeLabel;html=1;align=center;verticalAlign=middle;resizable=0;points=[];" parent="23" vertex="1" connectable="0">
                    <mxGeometry relative="1" as="geometry">
                        <mxPoint y="-8" as="offset"/>
                    </mxGeometry>
                </mxCell>
                <mxCell id="27" value="3" style="rounded=0;whiteSpace=wrap;html=1;" parent="1" vertex="1">
                    <mxGeometry x="130" y="701" width="30" height="30" as="geometry"/>
                </mxCell>
                <mxCell id="28" value="nb files" style="text;html=1;align=center;verticalAlign=middle;whiteSpace=wrap;rounded=0;" parent="1" vertex="1">
                    <mxGeometry x="30" y="701" width="100" height="30" as="geometry"/>
                </mxCell>
                <mxCell id="29" value="&lt;div&gt;&lt;br&gt;&lt;/div&gt;&lt;div&gt;&lt;br&gt;&lt;/div&gt;" style="html=1;verticalAlign=bottom;startArrow=oval;startFill=1;endArrow=block;startSize=8;curved=0;rounded=0;entryX=0.5;entryY=0;entryDx=0;entryDy=0;" parent="1" target="30" edge="1">
                    <mxGeometry x="-1" y="-5" width="60" relative="1" as="geometry">
                        <mxPoint x="255" y="667.9246153846154" as="sourcePoint"/>
                        <mxPoint x="255" y="768.0699999999999" as="targetPoint"/>
                        <mxPoint as="offset"/>
                    </mxGeometry>
                </mxCell>
                <mxCell id="30" value="file1.txt" style="rounded=0;whiteSpace=wrap;html=1;" parent="1" vertex="1">
                    <mxGeometry x="230" y="737" width="50" height="30" as="geometry"/>
                </mxCell>
                <mxCell id="31" value="&lt;div&gt;&lt;br&gt;&lt;/div&gt;&lt;div&gt;&lt;br&gt;&lt;/div&gt;" style="html=1;verticalAlign=bottom;startArrow=oval;startFill=1;endArrow=block;startSize=8;curved=0;rounded=0;entryX=0.5;entryY=0;entryDx=0;entryDy=0;" parent="1" target="32" edge="1">
                    <mxGeometry x="-1" y="-5" width="60" relative="1" as="geometry">
                        <mxPoint x="285" y="667.9246153846154" as="sourcePoint"/>
                        <mxPoint x="285" y="768.0699999999999" as="targetPoint"/>
                        <mxPoint as="offset"/>
                    </mxGeometry>
                </mxCell>
                <mxCell id="32" value="file2.txt" style="rounded=0;whiteSpace=wrap;html=1;" parent="1" vertex="1">
                    <mxGeometry x="260" y="695" width="50" height="30" as="geometry"/>
                </mxCell>
                <mxCell id="36" value="" style="rounded=0;whiteSpace=wrap;html=1;" parent="1" vertex="1">
                    <mxGeometry x="130" y="748" width="30" height="30" as="geometry"/>
                </mxCell>
                <mxCell id="37" value="cardinals" style="text;html=1;align=center;verticalAlign=middle;whiteSpace=wrap;rounded=0;" parent="1" vertex="1">
                    <mxGeometry x="30" y="748" width="100" height="30" as="geometry"/>
                </mxCell>
                <mxCell id="38" value="" style="shape=table;startSize=0;container=1;collapsible=0;childLayout=tableLayout;fontSize=16;" parent="1" vertex="1">
                    <mxGeometry x="240" y="778" width="105" height="30" as="geometry"/>
                </mxCell>
                <mxCell id="39" value="" style="shape=tableRow;horizontal=0;startSize=0;swimlaneHead=0;swimlaneBody=0;strokeColor=inherit;top=0;left=0;bottom=0;right=0;collapsible=0;dropTarget=0;fillColor=none;points=[[0,0.5],[1,0.5]];portConstraint=eastwest;fontSize=16;" parent="38" vertex="1">
                    <mxGeometry width="105" height="30" as="geometry"/>
                </mxCell>
                <mxCell id="40" value="42" style="shape=partialRectangle;html=1;whiteSpace=wrap;connectable=0;strokeColor=inherit;overflow=hidden;fillColor=none;top=0;left=0;bottom=0;right=0;pointerEvents=1;fontSize=16;" parent="39" vertex="1">
                    <mxGeometry width="35" height="30" as="geometry">
                        <mxRectangle width="35" height="30" as="alternateBounds"/>
                    </mxGeometry>
                </mxCell>
                <mxCell id="41" value="314" style="shape=partialRectangle;html=1;whiteSpace=wrap;connectable=0;strokeColor=inherit;overflow=hidden;fillColor=none;top=0;left=0;bottom=0;right=0;pointerEvents=1;fontSize=16;" parent="39" vertex="1">
                    <mxGeometry x="35" width="35" height="30" as="geometry">
                        <mxRectangle width="35" height="30" as="alternateBounds"/>
                    </mxGeometry>
                </mxCell>
                <mxCell id="49" value="161" style="shape=partialRectangle;html=1;whiteSpace=wrap;connectable=0;strokeColor=inherit;overflow=hidden;fillColor=none;top=0;left=0;bottom=0;right=0;pointerEvents=1;fontSize=16;" parent="39" vertex="1">
                    <mxGeometry x="70" width="35" height="30" as="geometry">
                        <mxRectangle width="35" height="30" as="alternateBounds"/>
                    </mxGeometry>
                </mxCell>
                <mxCell id="48" value="" style="edgeStyle=segmentEdgeStyle;endArrow=block;html=1;curved=0;rounded=0;endSize=8;startSize=8;entryX=0;entryY=0.5;entryDx=0;entryDy=0;endFill=1;startArrow=oval;startFill=1;" parent="1" target="39" edge="1">
                    <mxGeometry width="50" height="50" relative="1" as="geometry">
                        <mxPoint x="145" y="764" as="sourcePoint"/>
                        <mxPoint x="210" y="797" as="targetPoint"/>
                        <Array as="points">
                            <mxPoint x="210" y="764"/>
                            <mxPoint x="210" y="793"/>
                        </Array>
                    </mxGeometry>
                </mxCell>
                <mxCell id="50" value="&lt;div&gt;&lt;br&gt;&lt;/div&gt;&lt;div&gt;&lt;br&gt;&lt;/div&gt;" style="html=1;verticalAlign=bottom;startArrow=oval;startFill=1;endArrow=block;startSize=8;curved=0;rounded=0;entryX=0.5;entryY=0;entryDx=0;entryDy=0;" parent="1" target="51" edge="1">
                    <mxGeometry x="-1" y="-5" width="60" relative="1" as="geometry">
                        <mxPoint x="315" y="667.9246153846154" as="sourcePoint"/>
                        <mxPoint x="315" y="768.0699999999999" as="targetPoint"/>
                        <mxPoint as="offset"/>
                    </mxGeometry>
                </mxCell>
                <mxCell id="51" value="file3.txt" style="rounded=0;whiteSpace=wrap;html=1;" parent="1" vertex="1">
                    <mxGeometry x="290" y="737" width="50" height="30" as="geometry"/>
                </mxCell>
                <mxCell id="52" value="" style="shape=table;startSize=0;container=1;collapsible=0;childLayout=tableLayout;fontSize=16;" parent="1" vertex="1">
                    <mxGeometry x="240" y="592" width="105" height="30" as="geometry"/>
                </mxCell>
                <mxCell id="53" value="" style="shape=tableRow;horizontal=0;startSize=0;swimlaneHead=0;swimlaneBody=0;strokeColor=inherit;top=0;left=0;bottom=0;right=0;collapsible=0;dropTarget=0;fillColor=none;points=[[0,0.5],[1,0.5]];portConstraint=eastwest;fontSize=16;" parent="52" vertex="1">
                    <mxGeometry width="105" height="30" as="geometry"/>
                </mxCell>
                <mxCell id="54" value="11" style="shape=partialRectangle;html=1;whiteSpace=wrap;connectable=0;strokeColor=inherit;overflow=hidden;fillColor=none;top=0;left=0;bottom=0;right=0;pointerEvents=1;fontSize=16;" parent="53" vertex="1">
                    <mxGeometry width="35" height="30" as="geometry">
                        <mxRectangle width="35" height="30" as="alternateBounds"/>
                    </mxGeometry>
                </mxCell>
                <mxCell id="55" value="27" style="shape=partialRectangle;html=1;whiteSpace=wrap;connectable=0;strokeColor=inherit;overflow=hidden;fillColor=none;top=0;left=0;bottom=0;right=0;pointerEvents=1;fontSize=16;" parent="53" vertex="1">
                    <mxGeometry x="35" width="35" height="30" as="geometry">
                        <mxRectangle width="35" height="30" as="alternateBounds"/>
                    </mxGeometry>
                </mxCell>
                <mxCell id="56" value="141" style="shape=partialRectangle;html=1;whiteSpace=wrap;connectable=0;strokeColor=inherit;overflow=hidden;fillColor=none;top=0;left=0;bottom=0;right=0;pointerEvents=1;fontSize=16;" parent="53" vertex="1">
                    <mxGeometry x="70" width="35" height="30" as="geometry">
                        <mxRectangle width="35" height="30" as="alternateBounds"/>
                    </mxGeometry>
                </mxCell>
                <mxCell id="57" value="" style="endArrow=block;startArrow=block;endFill=1;startFill=1;html=1;rounded=0;labelPosition=center;verticalLabelPosition=top;align=center;verticalAlign=bottom;spacingTop=5;startSize=6;fontSize=1;" parent="1" edge="1">
                    <mxGeometry width="160" relative="1" as="geometry">
                        <mxPoint x="240" y="815" as="sourcePoint"/>
                        <mxPoint x="346" y="815" as="targetPoint"/>
                    </mxGeometry>
                </mxCell>
                <mxCell id="58" value="nb files" style="edgeLabel;html=1;align=center;verticalAlign=middle;resizable=0;points=[];horizontal=1;" parent="57" vertex="1" connectable="0">
                    <mxGeometry relative="1" as="geometry">
                        <mxPoint y="8" as="offset"/>
                    </mxGeometry>
                </mxCell>
                <UserObject label="&lt;div style=&quot;text-align: left;&quot;&gt;&lt;div&gt;$$\frac{(\textit{nb_files} - 1) \times \textit{nb_files}}{2}$$&lt;/div&gt;&lt;/div&gt;" placeholders="1" name="Variable" id="59">
                    <mxCell style="text;html=1;strokeColor=none;fillColor=none;align=center;verticalAlign=middle;whiteSpace=wrap;overflow=hidden;fontSize=8;fontFamily=Helvetica;" parent="1" vertex="1">
                        <mxGeometry x="237" y="549" width="110" height="38" as="geometry"/>
                    </mxCell>
                </UserObject>
                <mxCell id="60" value="" style="endArrow=block;startArrow=block;endFill=1;startFill=1;html=1;rounded=0;labelPosition=center;verticalLabelPosition=top;align=center;verticalAlign=bottom;spacingTop=5;startSize=6;fontSize=1;" parent="1" edge="1">
                    <mxGeometry width="160" relative="1" as="geometry">
                        <mxPoint x="239" y="584" as="sourcePoint"/>
                        <mxPoint x="345" y="584" as="targetPoint"/>
                    </mxGeometry>
                </mxCell>
                <mxCell id="62" value="" style="edgeStyle=elbowEdgeStyle;elbow=horizontal;endArrow=block;html=1;curved=0;rounded=0;endSize=8;startSize=8;entryX=0;entryY=0.5;entryDx=0;entryDy=0;endFill=1;startArrow=oval;startFill=1;" parent="1" target="53" edge="1">
                    <mxGeometry width="50" height="50" relative="1" as="geometry">
                        <mxPoint x="145" y="622" as="sourcePoint"/>
                        <mxPoint x="225" y="607" as="targetPoint"/>
                    </mxGeometry>
                </mxCell>
                <mxCell id="63" value="&lt;div&gt;&lt;br&gt;&lt;/div&gt;&lt;div&gt;&lt;br&gt;&lt;/div&gt;" style="html=1;verticalAlign=bottom;startArrow=oval;startFill=1;endArrow=block;startSize=8;curved=0;rounded=0;flowAnimation=0;shadow=0;endSize=8;jumpStyle=none;jumpSize=7;targetPerimeterSpacing=0;" parent="1" edge="1">
                    <mxGeometry x="-1" y="-5" width="60" relative="1" as="geometry">
                        <mxPoint x="145" y="667.1946153846154" as="sourcePoint"/>
                        <mxPoint x="240" y="667" as="targetPoint"/>
                        <mxPoint as="offset"/>
                    </mxGeometry>
                </mxCell>
                <mxCell id="64" value="" style="shape=table;startSize=0;container=1;collapsible=0;childLayout=tableLayout;fontSize=16;gradientColor=none;swimlaneFillColor=none;" parent="1" vertex="1">
                    <mxGeometry x="40" y="160" width="30" height="180" as="geometry"/>
                </mxCell>
                <mxCell id="65" value="" style="shape=tableRow;horizontal=0;startSize=0;swimlaneHead=0;swimlaneBody=0;strokeColor=inherit;top=0;left=0;bottom=0;right=0;collapsible=0;dropTarget=0;fillColor=none;points=[[0,0.5],[1,0.5]];portConstraint=eastwest;fontSize=16;" parent="64" vertex="1">
                    <mxGeometry width="30" height="30" as="geometry"/>
                </mxCell>
                <mxCell id="66" value="" style="shape=partialRectangle;html=1;whiteSpace=wrap;connectable=0;strokeColor=inherit;overflow=hidden;fillColor=none;top=0;left=0;bottom=0;right=0;pointerEvents=1;fontSize=16;" parent="65" vertex="1">
                    <mxGeometry width="30" height="30" as="geometry">
                        <mxRectangle width="30" height="30" as="alternateBounds"/>
                    </mxGeometry>
                </mxCell>
                <mxCell id="74" style="shape=tableRow;horizontal=0;startSize=0;swimlaneHead=0;swimlaneBody=0;strokeColor=inherit;top=0;left=0;bottom=0;right=0;collapsible=0;dropTarget=0;fillColor=none;points=[[0,0.5],[1,0.5]];portConstraint=eastwest;fontSize=16;" parent="64" vertex="1">
                    <mxGeometry y="30" width="30" height="30" as="geometry"/>
                </mxCell>
                <mxCell id="75" style="shape=partialRectangle;html=1;whiteSpace=wrap;connectable=0;strokeColor=inherit;overflow=hidden;fillColor=none;top=0;left=0;bottom=0;right=0;pointerEvents=1;fontSize=16;" parent="74" vertex="1">
                    <mxGeometry width="30" height="30" as="geometry">
                        <mxRectangle width="30" height="30" as="alternateBounds"/>
                    </mxGeometry>
                </mxCell>
                <mxCell id="76" style="shape=tableRow;horizontal=0;startSize=0;swimlaneHead=0;swimlaneBody=0;strokeColor=inherit;top=0;left=0;bottom=0;right=0;collapsible=0;dropTarget=0;fillColor=none;points=[[0,0.5],[1,0.5]];portConstraint=eastwest;fontSize=16;" parent="64" vertex="1">
                    <mxGeometry y="60" width="30" height="30" as="geometry"/>
                </mxCell>
                <mxCell id="77" style="shape=partialRectangle;html=1;whiteSpace=wrap;connectable=0;strokeColor=inherit;overflow=hidden;fillColor=none;top=0;left=0;bottom=0;right=0;pointerEvents=1;fontSize=16;" parent="76" vertex="1">
                    <mxGeometry width="30" height="30" as="geometry">
                        <mxRectangle width="30" height="30" as="alternateBounds"/>
                    </mxGeometry>
                </mxCell>
                <mxCell id="78" style="shape=tableRow;horizontal=0;startSize=0;swimlaneHead=0;swimlaneBody=0;strokeColor=inherit;top=0;left=0;bottom=0;right=0;collapsible=0;dropTarget=0;fillColor=none;points=[[0,0.5],[1,0.5]];portConstraint=eastwest;fontSize=16;" parent="64" vertex="1">
                    <mxGeometry y="90" width="30" height="30" as="geometry"/>
                </mxCell>
                <mxCell id="79" style="shape=partialRectangle;html=1;whiteSpace=wrap;connectable=0;strokeColor=inherit;overflow=hidden;fillColor=none;top=0;left=0;bottom=0;right=0;pointerEvents=1;fontSize=16;" parent="78" vertex="1">
                    <mxGeometry width="30" height="30" as="geometry">
                        <mxRectangle width="30" height="30" as="alternateBounds"/>
                    </mxGeometry>
                </mxCell>
                <mxCell id="80" style="shape=tableRow;horizontal=0;startSize=0;swimlaneHead=0;swimlaneBody=0;strokeColor=inherit;top=0;left=0;bottom=0;right=0;collapsible=0;dropTarget=0;fillColor=none;points=[[0,0.5],[1,0.5]];portConstraint=eastwest;fontSize=16;" parent="64" vertex="1">
                    <mxGeometry y="120" width="30" height="30" as="geometry"/>
                </mxCell>
                <mxCell id="81" style="shape=partialRectangle;html=1;whiteSpace=wrap;connectable=0;strokeColor=inherit;overflow=hidden;fillColor=none;top=0;left=0;bottom=0;right=0;pointerEvents=1;fontSize=16;" parent="80" vertex="1">
                    <mxGeometry width="30" height="30" as="geometry">
                        <mxRectangle width="30" height="30" as="alternateBounds"/>
                    </mxGeometry>
                </mxCell>
                <mxCell id="82" style="shape=tableRow;horizontal=0;startSize=0;swimlaneHead=0;swimlaneBody=0;strokeColor=inherit;top=0;left=0;bottom=0;right=0;collapsible=0;dropTarget=0;fillColor=none;points=[[0,0.5],[1,0.5]];portConstraint=eastwest;fontSize=16;" parent="64" vertex="1">
                    <mxGeometry y="150" width="30" height="30" as="geometry"/>
                </mxCell>
                <mxCell id="83" style="shape=partialRectangle;html=1;whiteSpace=wrap;connectable=0;strokeColor=inherit;overflow=hidden;fillColor=none;top=0;left=0;bottom=0;right=0;pointerEvents=1;fontSize=16;dashed=1;" parent="82" vertex="1">
                    <mxGeometry width="30" height="30" as="geometry">
                        <mxRectangle width="30" height="30" as="alternateBounds"/>
                    </mxGeometry>
                </mxCell>
                <mxCell id="88" value="" style="shape=table;startSize=0;container=1;collapsible=0;childLayout=tableLayout;fontSize=16;gradientColor=none;swimlaneFillColor=none;dashed=1;" parent="1" vertex="1">
                    <mxGeometry x="40" y="340" width="30" height="60" as="geometry"/>
                </mxCell>
                <mxCell id="89" value="" style="shape=tableRow;horizontal=0;startSize=0;swimlaneHead=0;swimlaneBody=0;strokeColor=inherit;top=0;left=0;bottom=0;right=0;collapsible=0;dropTarget=0;fillColor=none;points=[[0,0.5],[1,0.5]];portConstraint=eastwest;fontSize=16;" parent="88" vertex="1">
                    <mxGeometry width="30" height="60" as="geometry"/>
                </mxCell>
                <mxCell id="90" value="" style="shape=partialRectangle;html=1;whiteSpace=wrap;connectable=0;strokeColor=inherit;overflow=hidden;fillColor=none;top=0;left=0;bottom=0;right=0;pointerEvents=1;fontSize=16;" parent="89" vertex="1">
                    <mxGeometry width="30" height="60" as="geometry">
                        <mxRectangle width="30" height="60" as="alternateBounds"/>
                    </mxGeometry>
                </mxCell>
                <mxCell id="101" value="" style="shape=table;startSize=0;container=1;collapsible=0;childLayout=tableLayout;fontSize=16;gradientColor=none;swimlaneFillColor=none;" parent="1" vertex="1">
                    <mxGeometry x="40" y="400" width="30" height="30" as="geometry"/>
                </mxCell>
                <mxCell id="102" value="" style="shape=tableRow;horizontal=0;startSize=0;swimlaneHead=0;swimlaneBody=0;strokeColor=inherit;top=0;left=0;bottom=0;right=0;collapsible=0;dropTarget=0;fillColor=none;points=[[0,0.5],[1,0.5]];portConstraint=eastwest;fontSize=16;" parent="101" vertex="1">
                    <mxGeometry width="30" height="30" as="geometry"/>
                </mxCell>
                <mxCell id="103" value="" style="shape=partialRectangle;html=1;whiteSpace=wrap;connectable=0;strokeColor=inherit;overflow=hidden;fillColor=none;top=0;left=0;bottom=0;right=0;pointerEvents=1;fontSize=16;" parent="102" vertex="1">
                    <mxGeometry width="30" height="30" as="geometry">
                        <mxRectangle width="30" height="30" as="alternateBounds"/>
                    </mxGeometry>
                </mxCell>
                <mxCell id="106" value="" style="edgeStyle=elbowEdgeStyle;elbow=vertical;endArrow=block;html=1;curved=0;rounded=0;endSize=8;startSize=8;entryX=0.502;entryY=1.002;entryDx=0;entryDy=0;entryPerimeter=0;startArrow=oval;startFill=1;endFill=1;" parent="1" target="102" edge="1">
                    <mxGeometry width="50" height="50" relative="1" as="geometry">
                        <mxPoint x="145" y="532" as="sourcePoint"/>
                        <mxPoint x="50" y="432.7800000000001" as="targetPoint"/>
                    </mxGeometry>
                </mxCell>
                <mxCell id="110" value="" style="group" vertex="1" connectable="0" parent="1">
                    <mxGeometry x="95" y="250" width="90" height="50" as="geometry"/>
                </mxCell>
                <mxCell id="107" value="" style="rounded=1;whiteSpace=wrap;html=1;arcSize=6;" vertex="1" parent="110">
                    <mxGeometry width="90" height="30" as="geometry"/>
                </mxCell>
                <mxCell id="109" value="" style="rounded=0;whiteSpace=wrap;html=1;" vertex="1" parent="110">
                    <mxGeometry x="65" y="5" width="20" height="20" as="geometry"/>
                </mxCell>
                <mxCell id="114" value="" style="group" vertex="1" connectable="0" parent="110">
                    <mxGeometry y="61" width="90" height="30" as="geometry"/>
                </mxCell>
                <mxCell id="115" value="" style="rounded=1;whiteSpace=wrap;html=1;arcSize=6;" vertex="1" parent="114">
                    <mxGeometry width="90" height="30" as="geometry"/>
                </mxCell>
                <mxCell id="116" value="" style="rounded=0;whiteSpace=wrap;html=1;" vertex="1" parent="114">
                    <mxGeometry x="65" y="5" width="20" height="20" as="geometry"/>
                </mxCell>
                <mxCell id="131" value="" style="rounded=0;whiteSpace=wrap;html=1;" vertex="1" parent="114">
                    <mxGeometry x="15" y="5" width="20" height="20" as="geometry"/>
                </mxCell>
                <mxCell id="134" value="&lt;div&gt;&lt;br&gt;&lt;/div&gt;&lt;div&gt;&lt;br&gt;&lt;/div&gt;" style="html=1;verticalAlign=bottom;startArrow=oval;startFill=1;endArrow=block;startSize=8;curved=0;rounded=0;flowAnimation=0;shadow=0;endSize=8;jumpStyle=none;jumpSize=7;targetPerimeterSpacing=0;" edge="1" parent="114">
                    <mxGeometry x="-1" y="-5" width="60" relative="1" as="geometry">
                        <mxPoint x="25" y="14.864615384615377" as="sourcePoint"/>
                        <mxPoint x="55" y="49" as="targetPoint"/>
                        <mxPoint as="offset"/>
                    </mxGeometry>
                </mxCell>
                <mxCell id="117" value="&lt;div&gt;&lt;br&gt;&lt;/div&gt;&lt;div&gt;&lt;br&gt;&lt;/div&gt;" style="html=1;verticalAlign=bottom;startArrow=oval;startFill=1;endArrow=block;startSize=8;curved=0;rounded=0;flowAnimation=0;shadow=0;endSize=8;jumpStyle=none;jumpSize=7;targetPerimeterSpacing=0;entryX=0;entryY=0.5;entryDx=0;entryDy=0;" edge="1" parent="110" target="107">
                    <mxGeometry x="-1" y="-5" width="60" relative="1" as="geometry">
                        <mxPoint x="-40" y="14.774615384615402" as="sourcePoint"/>
                        <mxPoint x="55" y="14.579999999999984" as="targetPoint"/>
                        <mxPoint as="offset"/>
                    </mxGeometry>
                </mxCell>
                <mxCell id="119" value="&lt;div&gt;&lt;br&gt;&lt;/div&gt;&lt;div&gt;&lt;br&gt;&lt;/div&gt;" style="html=1;verticalAlign=bottom;startArrow=oval;startFill=1;endArrow=block;startSize=8;curved=0;rounded=0;flowAnimation=0;shadow=0;endSize=8;jumpStyle=none;jumpSize=7;targetPerimeterSpacing=0;entryX=0;entryY=0.5;entryDx=0;entryDy=0;" edge="1" parent="110" target="112">
                    <mxGeometry x="-1" y="-5" width="60" relative="1" as="geometry">
                        <mxPoint x="75" y="14.804615384615374" as="sourcePoint"/>
                        <mxPoint x="115" y="15.029999999999973" as="targetPoint"/>
                        <mxPoint as="offset"/>
                    </mxGeometry>
                </mxCell>
                <mxCell id="132" value="" style="rounded=0;whiteSpace=wrap;html=1;" vertex="1" parent="110">
                    <mxGeometry x="15" y="5" width="20" height="20" as="geometry"/>
                </mxCell>
                <mxCell id="135" value="&lt;div&gt;&lt;br&gt;&lt;/div&gt;&lt;div&gt;&lt;br&gt;&lt;/div&gt;" style="html=1;verticalAlign=bottom;startArrow=oval;startFill=1;endArrow=block;startSize=8;curved=0;rounded=0;flowAnimation=0;shadow=0;endSize=8;jumpStyle=none;jumpSize=7;targetPerimeterSpacing=0;" edge="1" parent="110">
                    <mxGeometry x="-1" y="-5" width="60" relative="1" as="geometry">
                        <mxPoint x="25" y="15.864615384615377" as="sourcePoint"/>
                        <mxPoint x="55" y="-20" as="targetPoint"/>
                        <mxPoint as="offset"/>
                    </mxGeometry>
                </mxCell>
                <mxCell id="111" value="" style="group" vertex="1" connectable="0" parent="1">
                    <mxGeometry x="200" y="250" width="90" height="30" as="geometry"/>
                </mxCell>
                <mxCell id="112" value="" style="rounded=1;whiteSpace=wrap;html=1;arcSize=6;" vertex="1" parent="111">
                    <mxGeometry width="90" height="30" as="geometry"/>
                </mxCell>
                <mxCell id="113" value="" style="rounded=0;whiteSpace=wrap;html=1;" vertex="1" parent="111">
                    <mxGeometry x="65" y="5" width="20" height="20" as="geometry"/>
                </mxCell>
                <mxCell id="129" value="" style="endArrow=none;html=1;exitX=0;exitY=1;exitDx=0;exitDy=0;entryX=1;entryY=0;entryDx=0;entryDy=0;" edge="1" parent="111" source="113" target="113">
                    <mxGeometry width="50" height="50" relative="1" as="geometry">
                        <mxPoint x="20" y="40" as="sourcePoint"/>
                        <mxPoint x="70" y="-10" as="targetPoint"/>
                    </mxGeometry>
                </mxCell>
                <mxCell id="130" value="" style="endArrow=none;html=1;exitX=0;exitY=0;exitDx=0;exitDy=0;entryX=1;entryY=1;entryDx=0;entryDy=0;" edge="1" parent="111" source="113" target="113">
                    <mxGeometry width="50" height="50" relative="1" as="geometry">
                        <mxPoint x="75" y="35" as="sourcePoint"/>
                        <mxPoint x="95" y="15" as="targetPoint"/>
                    </mxGeometry>
                </mxCell>
                <mxCell id="133" value="" style="rounded=0;whiteSpace=wrap;html=1;" vertex="1" parent="111">
                    <mxGeometry x="14" y="5" width="20" height="20" as="geometry"/>
                </mxCell>
                <mxCell id="118" value="&lt;div&gt;&lt;br&gt;&lt;/div&gt;&lt;div&gt;&lt;br&gt;&lt;/div&gt;" style="html=1;verticalAlign=bottom;startArrow=oval;startFill=1;endArrow=block;startSize=8;curved=0;rounded=0;flowAnimation=0;shadow=0;endSize=8;jumpStyle=none;jumpSize=7;targetPerimeterSpacing=0;entryX=0;entryY=0.5;entryDx=0;entryDy=0;" edge="1" parent="1">
                    <mxGeometry x="-1" y="-5" width="60" relative="1" as="geometry">
                        <mxPoint x="55" y="325.0046153846154" as="sourcePoint"/>
                        <mxPoint x="95" y="325.23" as="targetPoint"/>
                        <mxPoint as="offset"/>
                    </mxGeometry>
                </mxCell>
                <mxCell id="120" value="&lt;div&gt;&lt;br&gt;&lt;/div&gt;&lt;div&gt;&lt;br&gt;&lt;/div&gt;" style="html=1;verticalAlign=bottom;startArrow=oval;startFill=1;endArrow=block;startSize=8;curved=0;rounded=0;flowAnimation=0;shadow=0;endSize=8;jumpStyle=none;jumpSize=7;targetPerimeterSpacing=0;" edge="1" parent="1">
                    <mxGeometry x="-1" y="-5" width="60" relative="1" as="geometry">
                        <mxPoint x="170" y="325.8046153846154" as="sourcePoint"/>
                        <mxPoint x="230" y="326" as="targetPoint"/>
                        <mxPoint as="offset"/>
                    </mxGeometry>
                </mxCell>
                <mxCell id="136" value="&lt;div&gt;&lt;br&gt;&lt;/div&gt;&lt;div&gt;&lt;br&gt;&lt;/div&gt;" style="html=1;verticalAlign=bottom;startArrow=oval;startFill=1;endArrow=block;startSize=8;curved=0;rounded=0;flowAnimation=0;shadow=0;endSize=8;jumpStyle=none;jumpSize=7;targetPerimeterSpacing=0;" edge="1" parent="1">
                    <mxGeometry x="-1" y="-5" width="60" relative="1" as="geometry">
                        <mxPoint x="224" y="264.8646153846154" as="sourcePoint"/>
                        <mxPoint x="254" y="229" as="targetPoint"/>
                        <mxPoint as="offset"/>
                    </mxGeometry>
                </mxCell>
                <mxCell id="137" value="" style="rounded=1;whiteSpace=wrap;html=1;arcSize=6;" vertex="1" parent="1">
                    <mxGeometry x="230" y="411" width="90" height="30" as="geometry"/>
                </mxCell>
                <mxCell id="138" value="" style="rounded=0;whiteSpace=wrap;html=1;" vertex="1" parent="1">
                    <mxGeometry x="295" y="416" width="20" height="20" as="geometry"/>
                </mxCell>
                <mxCell id="139" value="&lt;div&gt;&lt;br&gt;&lt;/div&gt;&lt;div&gt;&lt;br&gt;&lt;/div&gt;" style="html=1;verticalAlign=bottom;startArrow=oval;startFill=1;endArrow=block;startSize=8;curved=0;rounded=0;flowAnimation=0;shadow=0;endSize=8;jumpStyle=none;jumpSize=7;targetPerimeterSpacing=0;entryX=0;entryY=0.5;entryDx=0;entryDy=0;" edge="1" parent="1" target="143">
                    <mxGeometry x="-1" y="-5" width="60" relative="1" as="geometry">
                        <mxPoint x="305" y="425.8046153846154" as="sourcePoint"/>
                        <mxPoint x="345" y="426.03" as="targetPoint"/>
                        <mxPoint as="offset"/>
                    </mxGeometry>
                </mxCell>
                <mxCell id="140" value="" style="rounded=0;whiteSpace=wrap;html=1;" vertex="1" parent="1">
                    <mxGeometry x="245" y="416" width="20" height="20" as="geometry"/>
                </mxCell>
                <mxCell id="141" value="&lt;div&gt;&lt;br&gt;&lt;/div&gt;&lt;div&gt;&lt;br&gt;&lt;/div&gt;" style="html=1;verticalAlign=bottom;startArrow=oval;startFill=1;endArrow=block;startSize=8;curved=0;rounded=0;flowAnimation=0;shadow=0;endSize=8;jumpStyle=none;jumpSize=7;targetPerimeterSpacing=0;" edge="1" parent="1">
                    <mxGeometry x="-1" y="-5" width="60" relative="1" as="geometry">
                        <mxPoint x="255" y="426.8646153846154" as="sourcePoint"/>
                        <mxPoint x="285" y="391" as="targetPoint"/>
                        <mxPoint as="offset"/>
                    </mxGeometry>
                </mxCell>
                <mxCell id="142" value="" style="group" vertex="1" connectable="0" parent="1">
                    <mxGeometry x="335" y="411" width="90" height="30" as="geometry"/>
                </mxCell>
                <mxCell id="143" value="" style="rounded=1;whiteSpace=wrap;html=1;arcSize=6;" vertex="1" parent="142">
                    <mxGeometry width="90" height="30" as="geometry"/>
                </mxCell>
                <mxCell id="144" value="" style="rounded=0;whiteSpace=wrap;html=1;" vertex="1" parent="142">
                    <mxGeometry x="65" y="5" width="20" height="20" as="geometry"/>
                </mxCell>
                <mxCell id="147" value="" style="rounded=0;whiteSpace=wrap;html=1;" vertex="1" parent="142">
                    <mxGeometry x="14" y="5" width="20" height="20" as="geometry"/>
                </mxCell>
                <mxCell id="148" value="&lt;div&gt;&lt;br&gt;&lt;/div&gt;&lt;div&gt;&lt;br&gt;&lt;/div&gt;" style="html=1;verticalAlign=bottom;startArrow=oval;startFill=1;endArrow=block;startSize=8;curved=0;rounded=0;flowAnimation=0;shadow=0;endSize=8;jumpStyle=none;jumpSize=7;targetPerimeterSpacing=0;" edge="1" parent="1">
                    <mxGeometry x="-1" y="-5" width="60" relative="1" as="geometry">
                        <mxPoint x="359" y="425.8646153846154" as="sourcePoint"/>
                        <mxPoint x="389" y="390" as="targetPoint"/>
                        <mxPoint as="offset"/>
                    </mxGeometry>
                </mxCell>
                <mxCell id="149" value="&lt;div&gt;&lt;br&gt;&lt;/div&gt;&lt;div&gt;&lt;br&gt;&lt;/div&gt;" style="html=1;verticalAlign=bottom;startArrow=oval;startFill=1;endArrow=block;startSize=8;curved=0;rounded=0;flowAnimation=0;shadow=0;endSize=8;jumpStyle=none;jumpSize=7;targetPerimeterSpacing=0;" edge="1" parent="1">
                    <mxGeometry x="-1" y="-5" width="60" relative="1" as="geometry">
                        <mxPoint x="410" y="425.8646153846154" as="sourcePoint"/>
                        <mxPoint x="470" y="426.06" as="targetPoint"/>
                        <mxPoint as="offset"/>
                    </mxGeometry>
                </mxCell>
                <mxCell id="150" value="" style="edgeStyle=elbowEdgeStyle;elbow=vertical;endArrow=block;html=1;curved=0;rounded=0;endSize=8;startSize=8;entryX=0.25;entryY=1;entryDx=0;entryDy=0;startArrow=oval;startFill=1;endFill=1;" edge="1" parent="1" target="137">
                    <mxGeometry width="50" height="50" relative="1" as="geometry">
                        <mxPoint x="145" y="577" as="sourcePoint"/>
                        <mxPoint x="55" y="475" as="targetPoint"/>
                        <Array as="points">
                            <mxPoint x="200" y="550"/>
                        </Array>
                    </mxGeometry>
                </mxCell>
                <mxCell id="151" value="word1" style="rounded=0;whiteSpace=wrap;html=1;" vertex="1" parent="1">
                    <mxGeometry x="270" y="360" width="50" height="30" as="geometry"/>
                </mxCell>
                <mxCell id="152" value="word2" style="rounded=0;whiteSpace=wrap;html=1;" vertex="1" parent="1">
                    <mxGeometry x="370" y="360" width="50" height="30" as="geometry"/>
                </mxCell>
            </root>
        </mxGraphModel>
    </diagram>
</mxfile>